<svg width="512" height="512" viewBox="0 0 512 512" fill="none" xmlns="http://www.w3.org/2000/svg">
<rect width="512" height="512" rx="64" fill="#3B82F6"/>
<path d="M352 160H160C142.327 160 128 174.327 128 192V384C128 401.673 142.327 416 160 416H352C369.673 416 384 401.673 384 384V192C384 174.327 369.673 160 352 160Z" fill="white"/>
<path d="M256 320C273.673 320 288 305.673 288 288C288 270.327 273.673 256 256 256C238.327 256 224 270.327 224 288C224 305.673 238.327 320 256 320Z" fill="#3B82F6"/>
<path d="M160 256C160 202.981 202.981 160 256 160C309.019 160 352 202.981 352 256V288H160V256Z" fill="#93C5FD"/>
<path d="M144 288H368V352H144z" fill="#3B82F6" fill-opacity="0.1"/>
<circle cx="256" cy="288" r="16" fill="white"/>
<rect x="248" y="288" width="16" height="32" fill="white"/>
</svg>
